<svg xmlns="http://www.w3.org/2000/svg" width="160" height="90" viewBox="0 0 160 90"><rect width="100%" height="100%" fill="#DDDDDD"/><path fill="#999999" d="M39.605 51.73h3.25v2.31h-10v-2.31h3.66V41.19q0-.63.04-1.29l-2.6 2.18q-.22.17-.44.22-.22.04-.41 0-.2-.04-.35-.13-.15-.09-.22-.21l-.98-1.33 5.51-4.69h2.54v15.79Zm16.7-15.76-5.36 6.56-.63.77q.53-.26 1.14-.4.6-.15 1.3-.15 1.03 0 2 .34.96.34 1.7 1.02.74.68 1.19 1.69.45 1.01.45 2.36 0 1.27-.46 2.37-.47 1.11-1.3 1.93-.84.83-2.02 1.3-1.18.48-2.61.48-1.45 0-2.6-.46-1.15-.47-1.96-1.3-.81-.83-1.24-2-.44-1.17-.44-2.59 0-1.28.52-2.62t1.61-2.79l4.31-5.79q.23-.3.66-.51.43-.21.99-.21h2.75Zm-4.66 15.74q.74 0 1.36-.25.61-.25 1.06-.7.44-.45.69-1.05.25-.61.25-1.32 0-.78-.24-1.39-.23-.62-.67-1.05-.44-.44-1.05-.66-.61-.22-1.35-.22-.74 0-1.34.25-.6.25-1.02.69-.43.44-.67 1.05-.23.6-.23 1.3 0 .75.2 1.37.21.62.62 1.06.4.44 1 .68.6.24 1.39.24ZM72.795 45q0 2.36-.51 4.11-.5 1.74-1.4 2.88-.89 1.14-2.11 1.69-1.22.56-2.63.56t-2.62-.56q-1.21-.55-2.09-1.69-.89-1.14-1.39-2.88-.5-1.75-.5-4.11 0-2.37.5-4.11.5-1.74 1.39-2.88.88-1.13 2.09-1.69t2.62-.56q1.41 0 2.63.56t2.11 1.69q.9 1.14 1.4 2.88.51 1.74.51 4.11Zm-3.19 0q0-1.96-.29-3.25-.28-1.29-.76-2.05-.49-.76-1.11-1.07-.63-.3-1.3-.3-.66 0-1.28.3-.62.31-1.1 1.07-.47.76-.75 2.05-.28 1.29-.28 3.25t.28 3.25q.28 1.29.75 2.05.48.76 1.1 1.07.62.31 1.28.31.67 0 1.3-.31.62-.31 1.11-1.07.48-.76.76-2.05.29-1.29.29-3.25Zm23.04 4.9-1.64 1.61-4.24-4.23-4.27 4.26-1.64-1.61 4.28-4.29-4.08-4.08 1.63-1.62 4.07 4.07 4.05-4.05 1.65 1.63-4.06 4.06 4.25 4.25Zm11.55-8.51q0 1.51.78 2.31.78.79 2.22.79.75 0 1.34-.24.58-.24.98-.65.4-.41.61-.97.21-.57.21-1.22 0-.73-.23-1.31-.22-.59-.64-.99-.41-.4-.98-.61-.57-.21-1.24-.21-.7 0-1.26.23-.57.23-.97.64-.4.42-.61.99-.21.56-.21 1.24Zm-1.51 12.65 5.61-7.01q.21-.27.4-.52.19-.25.36-.5-.62.4-1.37.61-.75.21-1.58.21-.94 0-1.84-.33-.9-.32-1.6-.98-.7-.66-1.13-1.62-.43-.97-.43-2.27 0-1.22.45-2.28.45-1.06 1.26-1.86.82-.8 1.95-1.26 1.14-.47 2.52-.47 1.38 0 2.49.44 1.11.44 1.89 1.23.78.78 1.2 1.88.42 1.1.42 2.42 0 .83-.15 1.58-.14.75-.4 1.45-.27.69-.64 1.35-.38.67-.84 1.32l-4.14 5.9q-.21.3-.63.5-.43.21-.97.21h-2.83Zm25.76-9.04q0 2.36-.51 4.11-.5 1.74-1.4 2.88-.89 1.14-2.11 1.69-1.22.56-2.63.56t-2.62-.56q-1.21-.55-2.09-1.69-.89-1.14-1.39-2.88-.5-1.75-.5-4.11 0-2.37.5-4.11.5-1.74 1.39-2.88.88-1.13 2.09-1.69t2.62-.56q1.41 0 2.63.56t2.11 1.69q.9 1.14 1.4 2.88.51 1.74.51 4.11Zm-3.19 0q0-1.96-.29-3.25-.28-1.29-.76-2.05-.49-.76-1.11-1.07-.63-.3-1.3-.3-.66 0-1.28.3-.62.31-1.1 1.07-.47.76-.75 2.05-.28 1.29-.28 3.25t.28 3.25q.28 1.29.75 2.05.48.76 1.1 1.07.62.31 1.28.31.67 0 1.3-.31.62-.31 1.11-1.07.48-.76.76-2.05.29-1.29.29-3.25Z"/></svg>